<svg width="401" height="97" viewBox="0 0 401 97" fill="none" xmlns="http://www.w3.org/2000/svg">
<rect x="21.3142" y="18.2264" width="60.2349" height="60.2349" rx="10" fill="white"/>
<path d="M141.09 47.0502C141.09 50.9365 140.335 54.2149 138.823 56.8854C137.312 59.5445 135.272 61.5615 132.704 62.9365C130.136 64.3002 127.272 64.982 124.113 64.982C120.931 64.982 118.056 64.2945 115.488 62.9195C112.931 61.5331 110.897 59.5104 109.386 56.8513C107.886 54.1808 107.136 50.9138 107.136 47.0502C107.136 43.1638 107.886 39.8911 109.386 37.232C110.897 34.5615 112.931 32.5445 115.488 31.1808C118.056 29.8058 120.931 29.1183 124.113 29.1183C127.272 29.1183 130.136 29.8058 132.704 31.1808C135.272 32.5445 137.312 34.5615 138.823 37.232C140.335 39.8911 141.09 43.1638 141.09 47.0502ZM131.34 47.0502C131.34 44.9592 131.062 43.1979 130.505 41.7661C129.96 40.3229 129.147 39.232 128.068 38.4933C127 37.7433 125.681 37.3683 124.113 37.3683C122.545 37.3683 121.221 37.7433 120.142 38.4933C119.073 39.232 118.261 40.3229 117.704 41.7661C117.159 43.1979 116.886 44.9592 116.886 47.0502C116.886 49.1411 117.159 50.9081 117.704 52.3513C118.261 53.7831 119.073 54.874 120.142 55.624C121.221 56.3627 122.545 56.732 124.113 56.732C125.681 56.732 127 56.3627 128.068 55.624C129.147 54.874 129.96 53.7831 130.505 52.3513C131.062 50.9081 131.34 49.1411 131.34 47.0502ZM144.652 74.3229V38.3229H153.993V42.8911H154.197C154.538 42.0047 155.038 41.1922 155.697 40.4536C156.356 39.7036 157.174 39.107 158.152 38.6638C159.129 38.2092 160.265 37.982 161.561 37.982C163.288 37.982 164.93 38.4422 166.487 39.3627C168.055 40.2831 169.328 41.732 170.305 43.7092C171.294 45.6865 171.788 48.2547 171.788 51.4138C171.788 54.4365 171.317 56.9422 170.373 58.9308C169.442 60.9195 168.192 62.4024 166.623 63.3797C165.067 64.357 163.356 64.8456 161.493 64.8456C160.265 64.8456 159.169 64.6467 158.203 64.249C157.248 63.8399 156.43 63.2888 155.748 62.5956C155.078 61.8911 154.561 61.0956 154.197 60.2092H154.061V74.3229H144.652ZM153.856 51.4138C153.856 52.6865 154.021 53.7888 154.351 54.7206C154.692 55.6411 155.169 56.357 155.782 56.8683C156.407 57.3683 157.152 57.6183 158.015 57.6183C158.879 57.6183 159.612 57.374 160.214 56.8854C160.828 56.3854 161.294 55.6752 161.612 54.7547C161.942 53.8229 162.106 52.7092 162.106 51.4138C162.106 50.1183 161.942 49.0104 161.612 48.0899C161.294 47.1581 160.828 46.4479 160.214 45.9592C159.612 45.4592 158.879 45.2092 158.015 45.2092C157.152 45.2092 156.407 45.4592 155.782 45.9592C155.169 46.4479 154.692 47.1581 154.351 48.0899C154.021 49.0104 153.856 50.1183 153.856 51.4138ZM187.315 64.982C184.52 64.982 182.111 64.4479 180.088 63.3797C178.077 62.3002 176.526 60.7547 175.435 58.7433C174.355 56.7206 173.815 54.3002 173.815 51.482C173.815 48.7774 174.361 46.4138 175.452 44.3911C176.543 42.3683 178.082 40.7945 180.071 39.6695C182.06 38.5445 184.406 37.982 187.111 37.982C189.088 37.982 190.878 38.2888 192.48 38.9024C194.082 39.5161 195.452 40.4081 196.588 41.5786C197.724 42.7377 198.599 44.1467 199.213 45.8058C199.827 47.4649 200.133 49.3342 200.133 51.4138V53.5956H176.747V48.4138H191.474C191.463 47.6638 191.27 47.0047 190.895 46.4365C190.531 45.857 190.037 45.4081 189.412 45.0899C188.798 44.7604 188.099 44.5956 187.315 44.5956C186.554 44.5956 185.855 44.7604 185.219 45.0899C184.582 45.4081 184.071 45.8513 183.685 46.4195C183.31 46.9877 183.111 47.6524 183.088 48.4138V54.0047C183.088 54.8456 183.264 55.5956 183.616 56.2547C183.969 56.9138 184.474 57.4308 185.133 57.8058C185.793 58.1808 186.588 58.3683 187.52 58.3683C188.168 58.3683 188.759 58.2774 189.293 58.0956C189.838 57.9138 190.304 57.6524 190.69 57.3115C191.077 56.9592 191.361 56.5388 191.543 56.0502H200.133C199.838 57.8683 199.139 59.4479 198.037 60.7888C196.935 62.1183 195.474 63.1524 193.656 63.8911C191.849 64.6183 189.736 64.982 187.315 64.982ZM212.422 49.7774V64.5047H203.013V38.3229H211.945V43.3002H212.218C212.786 41.6411 213.786 40.3399 215.218 39.3967C216.661 38.4536 218.343 37.982 220.263 37.982C222.115 37.982 223.723 38.4081 225.087 39.2604C226.462 40.1013 227.524 41.2604 228.274 42.7377C229.036 44.2149 229.411 45.9024 229.399 47.8002V64.5047H219.99V49.7774C220.002 48.482 219.672 47.4649 219.002 46.7263C218.343 45.9877 217.422 45.6183 216.24 45.6183C215.468 45.6183 214.791 45.7888 214.212 46.1297C213.644 46.4592 213.206 46.9365 212.899 47.5615C212.593 48.1752 212.433 48.9138 212.422 49.7774ZM251.766 40.5047C251.675 39.3683 251.249 38.482 250.488 37.8456C249.738 37.2092 248.596 36.8911 247.062 36.8911C246.084 36.8911 245.283 37.0104 244.658 37.249C244.044 37.4763 243.59 37.7888 243.294 38.1865C242.999 38.5842 242.846 39.0388 242.834 39.5502C242.812 39.9706 242.885 40.3513 243.056 40.6922C243.238 41.0217 243.522 41.3229 243.908 41.5956C244.294 41.857 244.789 42.0956 245.391 42.3115C245.993 42.5274 246.709 42.7206 247.539 42.8911L250.402 43.5047C252.334 43.9138 253.988 44.4536 255.363 45.124C256.738 45.7945 257.863 46.5842 258.738 47.4933C259.613 48.3911 260.255 49.4024 260.664 50.5274C261.084 51.6524 261.3 52.8797 261.312 54.2092C261.3 56.5047 260.726 58.4479 259.59 60.0388C258.454 61.6297 256.829 62.8399 254.715 63.6695C252.613 64.499 250.084 64.9138 247.13 64.9138C244.096 64.9138 241.448 64.4649 239.187 63.5672C236.937 62.6695 235.187 61.2888 233.937 59.4252C232.698 57.5502 232.073 55.1524 232.062 52.232H241.062C241.118 53.3002 241.385 54.1979 241.863 54.9252C242.34 55.6524 243.01 56.2036 243.874 56.5786C244.749 56.9536 245.789 57.1411 246.993 57.1411C248.005 57.1411 248.851 57.0161 249.533 56.7661C250.215 56.5161 250.732 56.1695 251.084 55.7263C251.437 55.2831 251.618 54.7774 251.63 54.2092C251.618 53.6752 251.442 53.2092 251.101 52.8115C250.772 52.4024 250.226 52.0388 249.465 51.7206C248.704 51.3911 247.675 51.0842 246.38 50.8002L242.902 50.0502C239.812 49.3797 237.374 48.2604 235.59 46.6922C233.817 45.1127 232.937 42.9592 232.948 40.232C232.937 38.0161 233.527 36.0786 234.721 34.4195C235.925 32.749 237.59 31.4479 239.715 30.5161C241.851 29.5842 244.3 29.1183 247.062 29.1183C249.88 29.1183 252.317 29.5899 254.374 30.5331C256.431 31.4763 258.016 32.8058 259.13 34.5217C260.255 36.2263 260.823 38.2206 260.834 40.5047H251.766ZM279.707 38.3229V45.1411H262.457V38.3229H279.707ZM265.798 32.0502H275.207V56.0842C275.207 56.4479 275.269 56.7547 275.394 57.0047C275.519 57.2433 275.712 57.4252 275.974 57.5502C276.235 57.6638 276.57 57.7206 276.979 57.7206C277.263 57.7206 277.593 57.6865 277.968 57.6183C278.354 57.5502 278.638 57.4933 278.82 57.4479L280.184 64.0615C279.763 64.1865 279.161 64.3399 278.377 64.5217C277.604 64.7036 276.684 64.8229 275.616 64.8797C273.457 64.9933 271.644 64.7717 270.178 64.2149C268.712 63.6467 267.61 62.7547 266.871 61.5388C266.133 60.3229 265.775 58.8002 265.798 56.9706V32.0502ZM294.919 64.982C292.078 64.982 289.646 64.4195 287.623 63.2945C285.6 62.1581 284.049 60.5786 282.97 58.5558C281.89 56.5217 281.35 54.1638 281.35 51.482C281.35 48.8002 281.89 46.4479 282.97 44.4252C284.049 42.3911 285.6 40.8115 287.623 39.6865C289.646 38.5502 292.078 37.982 294.919 37.982C297.759 37.982 300.191 38.5502 302.214 39.6865C304.237 40.8115 305.788 42.3911 306.867 44.4252C307.947 46.4479 308.487 48.8002 308.487 51.482C308.487 54.1638 307.947 56.5217 306.867 58.5558C305.788 60.5786 304.237 62.1581 302.214 63.2945C300.191 64.4195 297.759 64.982 294.919 64.982ZM294.987 58.0274C295.782 58.0274 296.47 57.7604 297.049 57.2263C297.629 56.6922 298.078 55.9308 298.396 54.9422C298.714 53.9536 298.873 52.7774 298.873 51.4138C298.873 50.0388 298.714 48.8627 298.396 47.8854C298.078 46.8967 297.629 46.1354 297.049 45.6013C296.47 45.0672 295.782 44.8002 294.987 44.8002C294.146 44.8002 293.424 45.0672 292.822 45.6013C292.22 46.1354 291.759 46.8967 291.441 47.8854C291.123 48.8627 290.964 50.0388 290.964 51.4138C290.964 52.7774 291.123 53.9536 291.441 54.9422C291.759 55.9308 292.22 56.6922 292.822 57.2263C293.424 57.7604 294.146 58.0274 294.987 58.0274ZM323.958 64.982C321.118 64.982 318.686 64.4195 316.663 63.2945C314.64 62.1581 313.089 60.5786 312.01 58.5558C310.93 56.5217 310.39 54.1638 310.39 51.482C310.39 48.8002 310.93 46.4479 312.01 44.4252C313.089 42.3911 314.64 40.8115 316.663 39.6865C318.686 38.5502 321.118 37.982 323.958 37.982C326.527 37.982 328.748 38.4479 330.623 39.3797C332.51 40.3002 333.97 41.607 335.004 43.3002C336.038 44.982 336.561 46.9592 336.572 49.232H327.845C327.72 47.857 327.322 46.8115 326.652 46.0956C325.993 45.3683 325.14 45.0047 324.095 45.0047C323.277 45.0047 322.561 45.2433 321.947 45.7206C321.333 46.1865 320.856 46.8967 320.515 47.8513C320.174 48.7945 320.004 49.982 320.004 51.4138C320.004 52.8456 320.174 54.0388 320.515 54.9933C320.856 55.9365 321.333 56.6467 321.947 57.124C322.561 57.5899 323.277 57.8229 324.095 57.8229C324.788 57.8229 325.402 57.6638 325.936 57.3456C326.47 57.0161 326.902 56.5388 327.231 55.9138C327.572 55.2774 327.777 54.5047 327.845 53.5956H336.572C336.538 55.9024 336.01 57.9138 334.987 59.6297C333.964 61.3342 332.515 62.6524 330.64 63.5842C328.777 64.5161 326.549 64.982 323.958 64.982ZM347.949 58.3002L348.017 47.1183H349.244L355.585 38.3229H366.153L355.517 52.0274H352.858L347.949 58.3002ZM339.494 64.5047V29.5956H348.903V64.5047H339.494ZM355.653 64.5047L349.653 54.1411L355.79 47.4592L366.426 64.5047H355.653Z" fill="white"/>
</svg>
